<svg xmlns="http://www.w3.org/2000/svg" xmlns:xlink="http://www.w3.org/1999/xlink" viewBox="0,0,256,256" width="50px" height="50px" fill-rule="nonzero"><g fill="#00ac48" fill-rule="nonzero" stroke="none" stroke-width="1" stroke-linecap="butt" stroke-linejoin="miter" stroke-miterlimit="10" stroke-dasharray="" stroke-dashoffset="0" font-family="none" font-weight="none" font-size="none" text-anchor="none" style="mix-blend-mode: normal"><g transform="scale(5.12,5.12)"><path d="M5,5c-0.55226,0.00006 -0.99994,0.44774 -1,1v38c0.00006,0.55226 0.44774,0.99994 1,1h3c0.36064,0.0051 0.69608,-0.18438 0.87789,-0.49587c0.18181,-0.3115 0.18181,-0.69676 0,-1.00825c-0.18181,-0.3115 -0.51725,-0.50097 -0.87789,-0.49587h-2v-36h2c0.36064,0.0051 0.69608,-0.18438 0.87789,-0.49587c0.18181,-0.3115 0.18181,-0.69676 0,-1.00825c-0.18181,-0.3115 -0.51725,-0.50097 -0.87789,-0.49587zM42,5c-0.36064,-0.0051 -0.69608,0.18438 -0.87789,0.49587c-0.18181,0.3115 -0.18181,0.69676 0,1.00825c0.18181,0.3115 0.51725,0.50097 0.87789,0.49587h2v36h-2c-0.36064,-0.0051 -0.69608,0.18438 -0.87789,0.49587c-0.18181,0.3115 -0.18181,0.69676 0,1.00825c0.18181,0.3115 0.51725,0.50097 0.87789,0.49587h3c0.55226,-0.00006 0.99994,-0.44774 1,-1v-38c-0.00006,-0.55226 -0.44774,-0.99994 -1,-1zM31.07422,17.50977c-1.09848,-0.02226 -2.20583,0.25053 -3.0957,0.86328c-0.571,0.394 -1.06291,0.89977 -1.62891,1.38477c-0.861,-1.718 -2.42027,-2.17703 -4.19727,-2.20703c-1.801,-0.031 -3.23142,0.79102 -4.48242,2.29102v-1.8418h-3.66992v14h3.66406c0,0 -0.00609,-5.23398 0.00391,-7.83398c0.002,-0.462 0.02123,-0.93377 0.11523,-1.38477c0.29,-1.389 1.75483,-2.24681 3.17383,-2.13281c1.352,0.109 2.14298,0.84722 2.20898,2.44922c0.011,0.279 0,8.90234 0,8.90234h3.66602v-7.77148c0.006,-0.599 0.06984,-1.21102 0.21484,-1.79102c0.326,-1.3 1.54366,-1.93925 2.97266,-1.78125c1.26,0.139 2.2195,0.81836 2.3125,2.19336v9.15039h3.66797v-10c0,-1 -0.25364,-1.50914 -0.55664,-2.11914c-0.7325,-1.47563 -2.53835,-2.33399 -4.36914,-2.37109z"></path></g></g></svg>